<svg xmlns="http://www.w3.org/2000/svg" width="1280" height="1280" style="shape-rendering:geometricPrecision;text-rendering:geometricPrecision;image-rendering:optimizeQuality;fill-rule:evenodd;clip-rule:evenodd">
<path style="opacity:1" fill="#fff" d="M-.5-.5h1280v1280H-.5V-.5Z"/>
<path style="opacity:1" fill="#bf4352" d="M627.5 258.5c99.328-.707 174.828 40.96 226.5 125 38.474 68.32 48.474 140.653 30 217-22.248 84.06-72.748 144.227-151.5 180.5-94.969 34.205-179.969 17.871-255-49-63.892-64.992-91.726-143.158-83.5-234.5 11.277-92.803 56.777-162.97 136.5-210.5 30.461-16.325 62.794-25.825 97-28.5Z"/>
<path style="opacity:1" fill="#fff" d="M621.5 328.5c30.531-2.859 59.198 2.974 86 17.5 37.648 26.264 50.814 61.764 39.5 106.5-3.892 12.206-9.892 23.206-18 33a2576.25 2576.25 0 0 1-60 61c-9.388 9.777-14.721 21.444-16 35-.5 19.33-.667 38.664-.5 58h-53c-.167-20.336 0-40.669.5-61 2.116-21.227 10.449-39.56 25-55l53-53c12.974-14.925 18.307-32.258 16-52-4.125-17.417-14.291-29.917-30.5-37.5-22.397-7.916-45.063-8.582-68-2-23.34 7.67-45.007 18.503-65 32.5a338.584 338.584 0 0 1 0-52c28.073-17.26 58.407-27.594 91-31Z"/>
<path style="opacity:1" fill="#eaebec" d="M597.5 680.5h56v70h-56v-70Z"/>
<path style="opacity:1" fill="#e3e5e6" d="M598.5 681.5h54v68h-54v-68Z"/>
<path style="opacity:1" fill="#bf4352" d="M1142.5 1153.5c-.67 0-1 .33-1 1-.9.71-1.24 1.71-1 3-333.541.66-666.874 0-1000-2 .237-1.29-.096-2.29-1-3 4.246-45.57 18.746-87.57 43.5-126 28.369-43.37 63.869-79.87 106.5-109.5 75.132-50.877 157.798-82.877 248-96 115.232-16.704 227.565-5.371 337 34 68.873 25.326 129.04 63.826 180.5 115.5 32.74 34.11 57.4 73.44 74 118 7.1 21.14 11.6 42.81 13.5 65Z"/>
<path style="opacity:1" fill="#a6adb0" d="M139.5 1152.5c.904.71 1.237 1.71 1 3v3h1001v-4c0-.67.33-1 1-1v6h-1003v-7Z"/>
<path style="opacity:1" fill="#bbc0c2" d="M139.5 1153.5v6h1003v-5c.96 1.76 1.29 3.76 1 6h-1005c-.302-2.56.032-4.89 1-7Z"/>
<path style="opacity:1" fill="#afb5b8" d="M1141.5 1154.5v4h-1001v-3c333.126 2 666.459 2.66 1000 2-.24-1.29.1-2.29 1-3Z"/></svg>