<svg xmlns="http://www.w3.org/2000/svg" viewBox="0 0 1496.555 1650.885" xml:space="preserve">
<path fill="#bf4352" d="M1413.971 885.076c172.156-430.18-38.201-804.688-513.982-854.384-420.114-43.881-653.793 194.675-686.636 441.132-3.481 26.388 0 52.776 12.442 80.161-57.715 90.119-190.57 223.055-202.01 286.786-6.968 38.337 38.311 51.78 60.206 65.224 20.9 6.971 43.785 1.99 57.716 18.92 9.951 12.447-3.481 33.359-6.47 48.794-.499 25.392-30.347 37.84-27.364 61.24 2.99 19.916 19.903 27.882 35.328 40.33 16.422 12.943-41.798 37.839-22.891 60.743 19.404 22.404 47.77 48.294 37.812 80.16-14.429 49.29-42.296 100.573-19.404 138.91 22.891 37.841 54.732 60.245 103.99 70.201 77.12 0 154.744 1.504 232.362 1.504 26.865 23.4 45.772 99.079 60.705 200.645h42.701c-1.899-12.428-2.864-25.246-2.864-38.466 0-64.417 22.758-119.197 68.273-164.401 45.515-45.174 100.45-67.776 164.774-67.776 65.164 0 119.882 22.385 164.153 67.154s66.408 99.766 66.408 165.023c0 13.238-.936 26.055-2.776 38.466h280.997c-32.843-154.35-72.15-408.273-55.23-470.509 27.867-105.553 117.92-185.216 151.76-269.857zm-266.435 11.662c-28.447 18.405-48.53 31.774-60.22 40.106-83.663 55.961-141.178 110.896-172.548 164.744s-48.717 121.28-52.044 202.3h-132.1v-17.535c0-71.009 7.96-138.66 23.908-203.015 15.918-64.324 39.826-125.726 71.724-184.237 8.363-15.856 22.602-39.266 42.748-70.169 76.325-121.125 114.503-233.918 114.503-338.379 0-86.056-25.307-155.386-75.92-208.02-50.614-52.635-116.866-78.968-198.818-78.968-54.376 0-105.176 15.047-152.433 45.142-47.256 30.095-70.884 56.863-70.884 80.242 0 10.042 15.42 20.893 46.261 32.582 17.473 6.716 30.81 12.125 39.982 16.291 44.986 19.245 78.097 44.738 99.362 76.512s31.898 71.443 31.898 119.073c0 66.034-19.4 118.078-58.138 156.1-38.737 38.054-91.87 57.05-159.365 57.05-68.46 0-124.607-25.058-168.443-75.175S251.285 595.73 251.285 514.71c0-137.79 54.314-250.955 162.972-339.499S662.072 42.397 831.759 42.397c172.174 0 312.823 43.028 421.886 129.053s163.624 195.833 163.624 329.456c0 46.759-7.337 91.248-21.95 133.405-14.642 42.189-36.187 80.802-64.634 115.871-37.619 43.432-98.679 92.274-183.15 146.556z"/>
</svg>