<svg xmlns="http://www.w3.org/2000/svg" width="200" height="200" version="1.0">
<path d="M3.148 199.88c.15-10.77.254-18.296-.064-32.258 7.022-8.795 31.74-12.828 38.493-15.243 8.714-6.505 18.587-12.04 27.097-16.94 4.7-2.707 4.761-11.983 4.417-18.213-1.561-8.822-2.387-16.43-8.685-22.908-.353-1.85-1.382-6.094-4.475-11.639-2.081-9.318-10.285-20.857-8.224-26.777 5.49-15.764.694-22.17 4.064-23.518 7.688-3.073 9.767-9.794 16.807-16.542 20.571-3.918 17.41-14.353 32.78-12.338 19.05 2.499 8.558 5.316 21.624 11.955 16.053 8.157 6.488 8.983 21.142 30.58 8.702 12.824-8.249 13.698-3.857 25.046 4.057 10.484-5.507 12.27-10.332 23.743-4.63 11.007-7.534 14.243-2.204 28.75 4.95 13.472 13.168 7.316 31.73 27.494 4.712 5.123 21.645-1.079 33.304 13.883-.007 7.67.163 18.636.215 34.982-52.256-.187-193.832-.058-193.832-.058z" 
style="fill:#bf4352;fill-opacity:1"/></svg>